<svg width="77" height="66" viewBox="0 0 77 66" fill="none" xmlns="http://www.w3.org/2000/svg">
<g id="Group">
<path id="Vector" fill-rule="evenodd" clip-rule="evenodd" d="M0.751343 0.77124V57.6361L36.0152 65.1043V9.00403L0.751343 0.77124ZM8.40731 22.0032C8.46528 22.0008 8.52334 22.0008 8.58131 22.0032C8.82829 21.9944 9.07477 22.0291 9.3063 22.1051L26.8802 27.5597C27.1299 27.6165 27.3635 27.7184 27.5659 27.8589C27.7683 27.9995 27.9351 28.1755 28.0558 28.3759C28.1764 28.5763 28.2483 28.7966 28.2666 29.0227C28.285 29.2488 28.2496 29.4758 28.1626 29.6893C28.0756 29.9027 27.9389 30.0978 27.7613 30.2622C27.5837 30.4266 27.369 30.5567 27.131 30.6441C26.8931 30.7315 26.6369 30.7744 26.379 30.7699C26.1212 30.7655 25.8672 30.7139 25.6332 30.6184L8.05931 25.1638C7.66347 25.0454 7.32474 24.8129 7.098 24.5041C6.87127 24.1953 6.76981 23.8283 6.81009 23.4625C6.85037 23.0966 7.03001 22.7535 7.31991 22.4886C7.60981 22.2238 7.99297 22.0527 8.40731 22.0032ZM8.40731 31.2045C8.46528 31.2021 8.52334 31.2021 8.58131 31.2045C8.82829 31.1958 9.07477 31.2304 9.3063 31.3065L26.8802 36.761C27.1299 36.8178 27.3635 36.9198 27.5659 37.0603C27.7683 37.2008 27.9351 37.3769 28.0558 37.5773C28.1764 37.7776 28.2483 37.9979 28.2666 38.224C28.285 38.4502 28.2496 38.6772 28.1626 38.8906C28.0756 39.104 27.9389 39.2992 27.7613 39.4636C27.5837 39.628 27.369 39.758 27.131 39.8454C26.8931 39.9329 26.6369 39.9757 26.379 39.9713C26.1212 39.9669 25.8672 39.9152 25.6332 39.8197L8.05931 34.3651C7.66349 34.2467 7.32479 34.0142 7.09807 33.7054C6.87135 33.3966 6.76992 33.0296 6.81019 32.6638C6.85047 32.298 7.0301 31.9549 7.31998 31.69C7.60985 31.4252 7.99299 31.2541 8.40731 31.2045Z" fill="url(#paint0_linear_56_198)"/>
<path id="Vector_2" fill-rule="evenodd" clip-rule="evenodd" d="M76.5821 0.77124L41.3183 9.00403V65.1043L76.5821 57.6361V0.77124ZM68.4622 22.0032C68.5298 21.9999 68.5976 21.9999 68.6652 22.0032C69.0929 22.0212 69.5004 22.1687 69.8185 22.4207C70.1367 22.6726 70.3459 23.0134 70.4108 23.3855C70.4756 23.7575 70.3921 24.1378 70.1744 24.4619C69.9567 24.786 69.6181 25.034 69.2162 25.1638L51.6713 30.6184C51.4373 30.7139 51.1833 30.7655 50.9254 30.7699C50.6675 30.7744 50.4114 30.7315 50.1734 30.6441C49.9354 30.5567 49.7208 30.4266 49.5432 30.2622C49.3656 30.0978 49.2289 29.9027 49.1419 29.6893C49.0549 29.4758 49.0194 29.2488 49.0378 29.0227C49.0562 28.7966 49.128 28.5763 49.2487 28.3759C49.3694 28.1755 49.5362 27.9995 49.7386 27.8589C49.941 27.7184 50.1745 27.6165 50.4243 27.5597L67.9982 22.1051C68.1472 22.0537 68.3032 22.0194 68.4622 22.0032ZM68.4622 31.2045C68.5298 31.2013 68.5976 31.2013 68.6652 31.2045C69.0929 31.2226 69.5003 31.3701 69.8185 31.6221C70.1366 31.874 70.3458 32.2149 70.4107 32.5869C70.4755 32.9589 70.392 33.3392 70.1743 33.6633C69.9566 33.9874 69.6181 34.2353 69.2162 34.3651L51.6713 39.8197C51.4373 39.9152 51.1833 39.9669 50.9254 39.9713C50.6675 39.9757 50.4114 39.9329 50.1734 39.8454C49.9354 39.758 49.7208 39.628 49.5432 39.4636C49.3656 39.2992 49.2289 39.104 49.1419 38.8906C49.0549 38.6772 49.0194 38.4502 49.0378 38.224C49.0562 37.9979 49.128 37.7776 49.2487 37.5773C49.3694 37.3769 49.5362 37.2008 49.7386 37.0603C49.941 36.9198 50.1745 36.8178 50.4243 36.761L67.9982 31.3065C68.1472 31.2551 68.3032 31.2208 68.4622 31.2045Z" fill="url(#paint1_linear_56_198)"/>
</g>
<defs>
<linearGradient id="paint0_linear_56_198" x1="14.9715" y1="-25.171" x2="69.2042" y2="4.55643" gradientUnits="userSpaceOnUse">
<stop stop-color="#00FFC4"/>
<stop offset="1" stop-color="#56D7FE"/>
</linearGradient>
<linearGradient id="paint1_linear_56_198" x1="55.5384" y1="-25.171" x2="109.771" y2="4.55642" gradientUnits="userSpaceOnUse">
<stop stop-color="#00FFC4"/>
<stop offset="1" stop-color="#56D7FE"/>
</linearGradient>
</defs>
</svg>
