<svg width="24" height="25" viewBox="0 0 24 25" fill="none" xmlns="http://www.w3.org/2000/svg">
<g id="Frame">
<path id="Vector" fill-rule="evenodd" clip-rule="evenodd" d="M1.5 6.86279C1.5 6.26606 1.73705 5.69376 2.15901 5.2718C2.58097 4.84985 3.15326 4.61279 3.75 4.61279H20.25C20.8467 4.61279 21.419 4.84985 21.841 5.2718C22.2629 5.69376 22.5 6.26606 22.5 6.86279V18.8628C22.5 19.4595 22.2629 20.0318 21.841 20.4538C21.419 20.8757 20.8467 21.1128 20.25 21.1128H3.75C3.15326 21.1128 2.58097 20.8757 2.15901 20.4538C1.73705 20.0318 1.5 19.4595 1.5 18.8628V6.86279ZM3 16.9228V18.8628C3 19.2768 3.336 19.6128 3.75 19.6128H20.25C20.4489 19.6128 20.6397 19.5338 20.7803 19.3931C20.921 19.2525 21 19.0617 21 18.8628V16.9228L18.31 14.2338C18.0287 13.9529 17.6475 13.7951 17.25 13.7951C16.8525 13.7951 16.4713 13.9529 16.19 14.2338L15.31 15.1128L16.28 16.0828C16.3537 16.1515 16.4128 16.2343 16.4538 16.3263C16.4948 16.4183 16.5168 16.5176 16.5186 16.6183C16.5204 16.719 16.5018 16.819 16.4641 16.9124C16.4264 17.0058 16.3703 17.0906 16.299 17.1618C16.2278 17.233 16.143 17.2892 16.0496 17.3269C15.9562 17.3646 15.8562 17.3832 15.7555 17.3814C15.6548 17.3796 15.5555 17.3576 15.4635 17.3166C15.3715 17.2756 15.2887 17.2165 15.22 17.1428L10.06 11.9838C9.77875 11.7029 9.3975 11.5451 9 11.5451C8.6025 11.5451 8.22125 11.7029 7.94 11.9838L3 16.9238V16.9228ZM13.125 9.11279C13.125 8.81442 13.2435 8.52828 13.4545 8.3173C13.6655 8.10632 13.9516 7.98779 14.25 7.98779C14.5484 7.98779 14.8345 8.10632 15.0455 8.3173C15.2565 8.52828 15.375 8.81442 15.375 9.11279C15.375 9.41116 15.2565 9.69731 15.0455 9.90829C14.8345 10.1193 14.5484 10.2378 14.25 10.2378C13.9516 10.2378 13.6655 10.1193 13.4545 9.90829C13.2435 9.69731 13.125 9.41116 13.125 9.11279Z" fill="#0A122A"/>
</g>
</svg>
