<svg width="54" height="60" viewBox="0 0 54 60" fill="none" xmlns="http://www.w3.org/2000/svg">
<path id="Vector" d="M5.99999 0.604736C3.05399 0.604736 0.666992 2.99274 0.666992 5.93774V53.9377C0.666992 56.8847 3.05499 59.2707 5.99999 59.2707H48.667C51.614 59.2707 54 56.8837 54 53.9377V5.93774C54 2.99174 51.613 0.604736 48.667 0.604736H5.99999ZM4.66599 5.93774H7.33299C8.06899 5.93774 8.66599 6.53474 8.66599 7.27074V9.93774C8.66599 10.6747 8.06899 11.2707 7.33299 11.2707H4.66599C3.92999 11.2707 3.33299 10.6737 3.33299 9.93774V7.27074C3.33299 6.53374 3.92999 5.93774 4.66599 5.93774ZM47.333 5.93774H50C50.736 5.93774 51.333 6.53474 51.333 7.27074V9.93774C51.333 10.6747 50.736 11.2707 50 11.2707H47.333C46.597 11.2707 46 10.6737 46 9.93774V7.27074C46 6.53374 46.597 5.93774 47.333 5.93774ZM4.66599 13.9377H7.33299C8.06899 13.9377 8.66599 14.5347 8.66599 15.2707V17.9377C8.66599 18.6747 8.06899 19.2707 7.33299 19.2707H4.66599C3.92999 19.2707 3.33299 18.6737 3.33299 17.9377V15.2707C3.33299 14.5337 3.92999 13.9377 4.66599 13.9377ZM47.333 13.9377H50C50.736 13.9377 51.333 14.5347 51.333 15.2707V17.9377C51.333 18.6747 50.736 19.2707 50 19.2707H47.333C46.597 19.2707 46 18.6737 46 17.9377V15.2707C46 14.5337 46.597 13.9377 47.333 13.9377ZM22 21.7657L35.333 29.7657L22 37.7657V21.7657ZM4.66599 21.9377H7.33299C8.06899 21.9377 8.66599 22.5347 8.66599 23.2707V25.9377C8.66599 26.6737 8.06899 27.2707 7.33299 27.2707H4.66599C3.92999 27.2707 3.33299 26.6737 3.33299 25.9377V23.2707C3.33299 22.5337 3.92999 21.9377 4.66599 21.9377ZM47.333 21.9377H50C50.736 21.9377 51.333 22.5347 51.333 23.2707V25.9377C51.333 26.6737 50.736 27.2707 50 27.2707H47.333C46.597 27.2707 46 26.6737 46 25.9377V23.2707C46 22.5337 46.597 21.9377 47.333 21.9377ZM4.66599 29.9377H7.33299C8.06899 29.9377 8.66599 30.5347 8.66599 31.2707V33.9377C8.66599 34.6737 8.06899 35.2707 7.33299 35.2707H4.66599C3.92999 35.2707 3.33299 34.6737 3.33299 33.9377V31.2707C3.33299 30.5347 3.92999 29.9377 4.66599 29.9377ZM47.333 29.9377H50C50.736 29.9377 51.333 30.5347 51.333 31.2707V33.9377C51.333 34.6737 50.736 35.2707 50 35.2707H47.333C46.597 35.2707 46 34.6737 46 33.9377V31.2707C46 30.5347 46.597 29.9377 47.333 29.9377ZM4.66599 37.9377H7.33299C8.06899 37.9377 8.66599 38.5347 8.66599 39.2707V41.9377C8.66599 42.6737 8.06899 43.2707 7.33299 43.2707H4.66599C3.92999 43.2707 3.33299 42.6737 3.33299 41.9377V39.2707C3.33299 38.5347 3.92999 37.9377 4.66599 37.9377ZM47.333 37.9377H50C50.736 37.9377 51.333 38.5347 51.333 39.2707V41.9377C51.333 42.6737 50.736 43.2707 50 43.2707H47.333C46.597 43.2707 46 42.6737 46 41.9377V39.2707C46 38.5347 46.597 37.9377 47.333 37.9377ZM4.66599 45.9377H7.33299C8.06899 45.9377 8.66599 46.5347 8.66599 47.2707V49.9377C8.66599 50.6737 8.06899 51.2707 7.33299 51.2707H4.66599C3.92999 51.2707 3.33299 50.6737 3.33299 49.9377V47.2707C3.33299 46.5347 3.92999 45.9377 4.66599 45.9377ZM47.333 45.9377H50C50.736 45.9377 51.333 46.5347 51.333 47.2707V49.9377C51.333 50.6737 50.736 51.2707 50 51.2707H47.333C46.597 51.2707 46 50.6737 46 49.9377V47.2707C46 46.5347 46.597 45.9377 47.333 45.9377Z" fill="url(#paint0_linear_56_184)"/>
<defs>
<linearGradient id="paint0_linear_56_184" x1="22.1735" y1="-23.0523" x2="80.574" y2="30.0394" gradientUnits="userSpaceOnUse">
<stop stop-color="#00FFC4"/>
<stop offset="1" stop-color="#56D7FE"/>
</linearGradient>
</defs>
</svg>
