<svg width="22" height="23" viewBox="0 0 22 23" fill="none" xmlns="http://www.w3.org/2000/svg">
<g id="Frame" clip-path="url(#clip0_56_231)">
<path id="Vector" fill-rule="evenodd" clip-rule="evenodd" d="M10.7822 0.787037C10.8969 0.720091 11.0273 0.684814 11.1602 0.684814C11.293 0.684814 11.4234 0.720091 11.5382 0.787037L13.7882 2.10004C13.9546 2.20291 14.0742 2.36672 14.1215 2.55654C14.1688 2.74635 14.1401 2.94715 14.0415 3.1161C13.9429 3.28504 13.7821 3.40876 13.5936 3.46088C13.405 3.51299 13.2035 3.48936 13.0322 3.39504L11.1602 2.30304L9.28816 3.39504C9.20302 3.44767 9.10822 3.48272 9.00932 3.49814C8.91043 3.51356 8.80945 3.50903 8.71234 3.48482C8.61522 3.46061 8.52394 3.4172 8.44386 3.35716C8.36378 3.29712 8.29653 3.22166 8.24607 3.13522C8.19561 3.04878 8.16296 2.95312 8.15005 2.85387C8.13713 2.75462 8.14421 2.65379 8.17087 2.55732C8.19754 2.46084 8.24324 2.37068 8.30528 2.29215C8.36733 2.21362 8.44447 2.14829 8.53216 2.10004L10.7822 0.787037ZM5.05816 4.99504C5.15814 5.1668 5.18587 5.37122 5.13524 5.5634C5.08462 5.75559 4.95978 5.91983 4.78816 6.02004L3.64816 6.68504L4.78816 7.35004C4.87584 7.39829 4.95298 7.46362 5.01503 7.54215C5.07708 7.62069 5.12278 7.71084 5.14944 7.80731C5.1761 7.90379 5.18318 8.00462 5.17027 8.10387C5.15735 8.20312 5.1247 8.29878 5.07424 8.38522C5.02378 8.47166 4.95653 8.54712 4.87645 8.60716C4.79638 8.6672 4.70509 8.71061 4.60797 8.73482C4.51086 8.75903 4.40988 8.76357 4.31099 8.74815C4.2121 8.73273 4.11729 8.69767 4.03216 8.64504L2.91016 7.99104V8.93504C2.91016 9.13395 2.83114 9.32471 2.69049 9.46537C2.54983 9.60602 2.35907 9.68504 2.16016 9.68504C1.96124 9.68504 1.77048 9.60602 1.62983 9.46537C1.48917 9.32471 1.41016 9.13395 1.41016 8.93504V6.68504C1.41012 6.55393 1.44445 6.42511 1.50972 6.31141C1.57499 6.19772 1.66892 6.10311 1.78216 6.03704L4.03216 4.72504C4.11725 4.67537 4.21129 4.64296 4.30891 4.62965C4.40653 4.61634 4.50582 4.62239 4.6011 4.64747C4.69637 4.67254 4.78578 4.71614 4.86421 4.77578C4.94263 4.83542 5.00853 4.90992 5.05816 4.99504ZM17.2622 4.99504C17.3118 4.90992 17.3777 4.83542 17.4561 4.77578C17.5345 4.71614 17.6239 4.67254 17.7192 4.64747C17.8145 4.62239 17.9138 4.61634 18.0114 4.62965C18.109 4.64296 18.2031 4.67537 18.2882 4.72504L20.5382 6.03704C20.6514 6.10311 20.7453 6.19772 20.8106 6.31141C20.8759 6.42511 20.9102 6.55393 20.9102 6.68504V8.93504C20.9102 9.13395 20.8311 9.32471 20.6905 9.46537C20.5498 9.60602 20.3591 9.68504 20.1602 9.68504C19.9612 9.68504 19.7705 9.60602 19.6298 9.46537C19.4892 9.32471 19.4102 9.13395 19.4102 8.93504V7.99104L18.2882 8.64504C18.203 8.69767 18.1082 8.73273 18.0093 8.74815C17.9104 8.76357 17.8095 8.75903 17.7123 8.73482C17.6152 8.71061 17.5239 8.6672 17.4439 8.60716C17.3638 8.54712 17.2965 8.47166 17.2461 8.38522C17.1956 8.29878 17.163 8.20312 17.15 8.10387C17.1371 8.00462 17.1442 7.90379 17.1709 7.80731C17.1975 7.71084 17.2432 7.62069 17.3053 7.54215C17.3673 7.46362 17.4445 7.39829 17.5322 7.35004L18.6722 6.68504L17.5322 6.02004C17.3605 5.91983 17.2357 5.75559 17.1851 5.5634C17.1344 5.37122 17.1622 5.1668 17.2622 4.99504ZM8.26216 10.245C8.31178 10.1599 8.37768 10.0854 8.45611 10.0258C8.53453 9.96614 8.62394 9.92254 8.71922 9.89747C8.8145 9.87239 8.91378 9.86634 9.0114 9.87965C9.10902 9.89296 9.20307 9.92537 9.28816 9.97504L11.1602 11.067L13.0322 9.97504C13.1173 9.92241 13.2121 9.88735 13.311 9.87193C13.4099 9.85651 13.5109 9.86104 13.608 9.88525C13.7051 9.90946 13.7964 9.95287 13.8765 10.0129C13.9565 10.073 14.0238 10.1484 14.0742 10.2349C14.1247 10.3213 14.1574 10.417 14.1703 10.5162C14.1832 10.6155 14.1761 10.7163 14.1494 10.8128C14.1228 10.9092 14.0771 10.9994 14.015 11.0779C13.953 11.1565 13.8758 11.2218 13.7882 11.27L11.9102 12.366V14.185C11.9102 14.3839 11.8311 14.5747 11.6905 14.7154C11.5498 14.856 11.3591 14.935 11.1602 14.935C10.9612 14.935 10.7705 14.856 10.6298 14.7154C10.4892 14.5747 10.4102 14.3839 10.4102 14.185V12.365L8.53216 11.27C8.36053 11.1698 8.23569 11.0056 8.18507 10.8134C8.13444 10.6212 8.16217 10.4168 8.26216 10.245ZM2.16016 12.685C2.35907 12.685 2.54983 12.7641 2.69049 12.9047C2.83114 13.0454 2.91016 13.2361 2.91016 13.435V15.255L4.78816 16.35C4.87584 16.3983 4.95298 16.4636 5.01503 16.5421C5.07708 16.6207 5.12278 16.7108 5.14944 16.8073C5.1761 16.9038 5.18318 17.0046 5.17027 17.1039C5.15735 17.2031 5.1247 17.2988 5.07424 17.3852C5.02378 17.4717 4.95653 17.5471 4.87645 17.6072C4.79638 17.6672 4.70509 17.7106 4.60797 17.7348C4.51086 17.759 4.40988 17.7636 4.31099 17.7481C4.2121 17.7327 4.11729 17.6977 4.03216 17.645L1.78216 16.333C1.66892 16.267 1.57499 16.1724 1.50972 16.0587C1.44445 15.945 1.41012 15.8161 1.41016 15.685V13.435C1.41016 13.2361 1.48917 13.0454 1.62983 12.9047C1.77048 12.7641 1.96124 12.685 2.16016 12.685ZM20.1602 12.685C20.3591 12.685 20.5498 12.7641 20.6905 12.9047C20.8311 13.0454 20.9102 13.2361 20.9102 13.435V15.685C20.9102 15.8161 20.8759 15.945 20.8106 16.0587C20.7453 16.1724 20.6514 16.267 20.5382 16.333L18.2882 17.645C18.203 17.6977 18.1082 17.7327 18.0093 17.7481C17.9104 17.7636 17.8095 17.759 17.7123 17.7348C17.6152 17.7106 17.5239 17.6672 17.4439 17.6072C17.3638 17.5471 17.2965 17.4717 17.2461 17.3852C17.1956 17.2988 17.163 17.2031 17.15 17.1039C17.1371 17.0046 17.1442 16.9038 17.1709 16.8073C17.1975 16.7108 17.2432 16.6207 17.3053 16.5421C17.3673 16.4636 17.4445 16.3983 17.5322 16.35L19.4102 15.254V13.435C19.4102 13.2361 19.4892 13.0454 19.6298 12.9047C19.7705 12.7641 19.9612 12.685 20.1602 12.685ZM11.1602 17.935C11.3591 17.935 11.5498 18.0141 11.6905 18.1547C11.8311 18.2954 11.9102 18.4861 11.9102 18.685V19.629L13.0322 18.975C13.1173 18.9224 13.2121 18.8873 13.311 18.8719C13.4099 18.8565 13.5109 18.861 13.608 18.8853C13.7051 18.9095 13.7964 18.9529 13.8765 19.0129C13.9565 19.073 14.0238 19.1484 14.0742 19.2349C14.1247 19.3213 14.1574 19.417 14.1703 19.5162C14.1832 19.6155 14.1761 19.7163 14.1494 19.8128C14.1228 19.9092 14.0771 19.9994 14.015 20.0779C13.953 20.1565 13.8758 20.2218 13.7882 20.27L11.5382 21.583C11.4234 21.65 11.293 21.6853 11.1602 21.6853C11.0273 21.6853 10.8969 21.65 10.7822 21.583L8.53216 20.27C8.44447 20.2218 8.36733 20.1565 8.30528 20.0779C8.24324 19.9994 8.19754 19.9092 8.17087 19.8128C8.14421 19.7163 8.13713 19.6155 8.15005 19.5162C8.16296 19.417 8.19561 19.3213 8.24607 19.2349C8.29653 19.1484 8.36378 19.073 8.44386 19.0129C8.52394 18.9529 8.61522 18.9095 8.71234 18.8853C8.80945 18.861 8.91043 18.8565 9.00932 18.8719C9.10822 18.8873 9.20302 18.9224 9.28816 18.975L10.4102 19.629V18.685C10.4102 18.4861 10.4892 18.2954 10.6298 18.1547C10.7705 18.0141 10.9612 17.935 11.1602 17.935Z" fill="#0A122A"/>
</g>
<defs>
<clipPath id="clip0_56_231">
<rect width="21" height="22" fill="white" transform="translate(0.886719 0.185059)"/>
</clipPath>
</defs>
</svg>
