<svg width="25" height="25" viewBox="0 0 25 25" fill="none" xmlns="http://www.w3.org/2000/svg">
<g id="Frame">
<path id="Vector" fill-rule="evenodd" clip-rule="evenodd" d="M7.88873 6.18506H15.0167C15.911 6.18638 16.7681 6.54255 17.4 7.17534C18.0318 7.80813 18.3867 8.66582 18.3867 9.56006V18.9351C19.1824 18.9351 19.9454 18.619 20.5081 18.0564C21.0707 17.4938 21.3867 16.7307 21.3867 15.9351V6.29306C21.3867 4.78806 20.2617 3.48206 18.7227 3.35306C18.4985 3.33485 18.2742 3.31818 18.0497 3.30306C17.7966 2.81535 17.4144 2.40652 16.9448 2.1212C16.4752 1.83587 15.9362 1.68501 15.3867 1.68506H13.8867C13.3372 1.68501 12.7983 1.83587 12.3287 2.1212C11.8591 2.40652 11.4769 2.81535 11.2237 3.30306C10.9987 3.31806 10.7737 3.33506 10.5507 3.35306C9.04873 3.48006 7.94073 4.72706 7.88873 6.18506ZM13.8867 3.18506C13.4889 3.18506 13.1074 3.34309 12.8261 3.6244C12.5448 3.9057 12.3867 4.28723 12.3867 4.68506H16.8867C16.8867 4.28723 16.7287 3.9057 16.4474 3.6244C16.1661 3.34309 15.7846 3.18506 15.3867 3.18506H13.8867Z" fill="#0A122A"/>
<path id="Vector_2" fill-rule="evenodd" clip-rule="evenodd" d="M3.38672 9.56006C3.38672 8.52406 4.22672 7.68506 5.26172 7.68506H15.0117C16.0477 7.68506 16.8867 8.52506 16.8867 9.56006V20.8101C16.8867 21.8451 16.0467 22.6851 15.0117 22.6851H5.26172C4.76444 22.6851 4.28752 22.4875 3.93589 22.1359C3.58426 21.7843 3.38672 21.3073 3.38672 20.8101V9.56006ZM12.9727 14.1541C13.0971 13.9986 13.1547 13.8002 13.1327 13.6023C13.1108 13.4045 13.0111 13.2234 12.8557 13.0991C12.7003 12.9747 12.5018 12.9171 12.304 12.9391C12.1061 12.961 11.9251 13.0606 11.8007 13.2161L9.32472 16.3121L8.41672 15.4051C8.27454 15.2726 8.0865 15.2005 7.8922 15.2039C7.6979 15.2073 7.51251 15.286 7.3751 15.4234C7.23768 15.5609 7.15897 15.7462 7.15554 15.9405C7.15212 16.1348 7.22424 16.3229 7.35672 16.4651L8.85672 17.9651C8.93132 18.0396 9.02081 18.0976 9.11935 18.1353C9.21789 18.1729 9.32326 18.1893 9.42858 18.1835C9.5339 18.1776 9.6368 18.1496 9.73056 18.1013C9.82433 18.053 9.90684 17.9854 9.97272 17.9031L12.9727 14.1541Z" fill="#0A122A"/>
</g>
</svg>
