<svg width="25" height="25" viewBox="0 0 25 25" fill="none" xmlns="http://www.w3.org/2000/svg">
<g id="Frame">
<path id="Vector" fill-rule="evenodd" clip-rule="evenodd" d="M9.70172 7.76906C12.5817 4.06806 17.0817 1.68506 22.1367 1.68506C22.3356 1.68506 22.5264 1.76408 22.667 1.90473C22.8077 2.04538 22.8867 2.23615 22.8867 2.43506C22.8867 7.49106 20.5037 11.9901 16.8027 14.8711C16.9566 15.8353 16.8995 16.8215 16.6353 17.7615C16.3711 18.7015 15.9061 19.573 15.2724 20.3159C14.6386 21.0587 13.8513 21.6553 12.9647 22.0643C12.078 22.4733 11.1132 22.6851 10.1367 22.6851C9.93781 22.6851 9.74704 22.606 9.60639 22.4654C9.46574 22.3247 9.38672 22.134 9.38672 21.9351V17.8041C8.41464 17.0364 7.53597 16.1574 6.76872 15.1851H2.63672C2.43781 15.1851 2.24704 15.106 2.10639 14.9654C1.96574 14.8247 1.88672 14.634 1.88672 14.4351C1.88664 13.4585 2.09845 12.4936 2.50754 11.6068C2.91663 10.7201 3.51325 9.93271 4.25623 9.29897C4.99921 8.66523 5.87085 8.20025 6.81099 7.93611C7.75114 7.67198 8.7374 7.61498 9.70172 7.76906ZM15.3867 6.93506C14.79 6.93506 14.2177 7.17211 13.7957 7.59407C13.3738 8.01603 13.1367 8.58832 13.1367 9.18506C13.1367 9.7818 13.3738 10.3541 13.7957 10.776C14.2177 11.198 14.79 11.4351 15.3867 11.4351C15.9835 11.4351 16.5558 11.198 16.9777 10.776C17.3997 10.3541 17.6367 9.7818 17.6367 9.18506C17.6367 8.58832 17.3997 8.01603 16.9777 7.59407C16.5558 7.17211 15.9835 6.93506 15.3867 6.93506Z" fill="#0A122A"/>
<path id="Vector_2" d="M5.64676 17.427C5.72575 17.3681 5.79236 17.2942 5.8428 17.2096C5.89324 17.1249 5.92651 17.0312 5.94072 16.9337C5.95492 16.8362 5.94979 16.7368 5.9256 16.6413C5.90142 16.5458 5.85865 16.456 5.79976 16.377C5.74086 16.298 5.66698 16.2314 5.58234 16.181C5.49769 16.1305 5.40394 16.0972 5.30644 16.083C5.20894 16.0688 5.1096 16.074 5.01408 16.0982C4.91856 16.1223 4.82875 16.1651 4.74976 16.224C3.98265 16.7946 3.38616 17.5641 3.02484 18.4493C2.66351 19.3345 2.5511 20.3016 2.69976 21.246C2.72393 21.4033 2.79752 21.5488 2.90987 21.6616C3.02223 21.7743 3.16753 21.8483 3.32476 21.873C4.26929 22.0215 5.23646 21.909 6.12163 21.5475C7.00679 21.186 7.77625 20.5893 8.34676 19.822C8.40755 19.7432 8.45206 19.6531 8.47769 19.557C8.50332 19.4608 8.50957 19.3605 8.49605 19.2619C8.48254 19.1633 8.44954 19.0684 8.39898 18.9827C8.34842 18.897 8.28131 18.8222 8.20156 18.7627C8.12181 18.7032 8.03101 18.6601 7.93445 18.6361C7.8379 18.612 7.73752 18.6074 7.63916 18.6225C7.5408 18.6376 7.44644 18.6721 7.36155 18.724C7.27667 18.776 7.20297 18.8443 7.14476 18.925C6.79602 19.394 6.34233 19.7749 5.82 20.0371C5.29767 20.2993 4.72121 20.4356 4.13676 20.435C4.13676 19.205 4.72876 18.112 5.64676 17.427Z" fill="#0A122A"/>
</g>
</svg>
