<svg width="43" height="35" viewBox="0 0 43 35" fill="none" xmlns="http://www.w3.org/2000/svg">
<path id="&#226;&#128;&#156;" d="M42.28 34.7495H26.04C24.4533 29.6161 23.66 24.2961 23.66 18.7895C23.66 13.1895 25.1067 8.75613 28 5.48946C30.9867 2.12946 35.3733 0.449463 41.16 0.449463V8.28946C36.4933 8.28946 34.16 11.1361 34.16 16.8295V19.4895H42.28V34.7495ZM18.62 34.7495H2.38C0.793333 29.6161 0 24.2961 0 18.7895C0 13.1895 1.44667 8.75613 4.34 5.48946C7.32667 2.12946 11.7133 0.449463 17.5 0.449463V8.28946C12.8333 8.28946 10.5 11.1361 10.5 16.8295V19.4895H18.62V34.7495Z" fill="#CBD5E1"/>
</svg>
